<svg width="300" height="300" viewBox="0 0 448 456" fill="none" xmlns="http://www.w3.org/2000/svg">
<g filter="url(#filter0_d_940_4)">
<path d="M224 64C181.565 64 140.869 80.8571 110.863 110.863C80.8571 140.869 64 181.565 64 224C64 266.435 80.8571 307.131 110.863 337.137C140.869 367.143 181.565 384 224 384C266.435 384 307.131 367.143 337.137 337.137C367.143 307.131 384 266.435 384 224C384 181.565 367.143 140.869 337.137 110.863C307.131 80.8571 266.435 64 224 64ZM448 224C448 283.408 424.4 340.384 382.392 382.392C340.384 424.4 283.408 448 224 448C164.592 448 107.616 424.4 65.6081 382.392C23.5999 340.384 0 283.408 0 224C0 164.592 23.5999 107.616 65.6081 65.6081C107.616 23.5999 164.592 0 224 0C283.408 0 340.384 23.5999 382.392 65.6081C424.4 107.616 448 164.592 448 224Z" fill="#493971"/>
</g>
<defs>
<filter id="filter0_d_940_4" x="-4" y="0" width="456" height="456" filterUnits="userSpaceOnUse" color-interpolation-filters="sRGB">
<feFlood flood-opacity="0" result="BackgroundImageFix"/>
<feColorMatrix in="SourceAlpha" type="matrix" values="0 0 0 0 0 0 0 0 0 0 0 0 0 0 0 0 0 0 127 0" result="hardAlpha"/>
<feOffset dy="4"/>
<feGaussianBlur stdDeviation="2"/>
<feComposite in2="hardAlpha" operator="out"/>
<feColorMatrix type="matrix" values="0 0 0 0 0 0 0 0 0 0 0 0 0 0 0 0 0 0 0.25 0"/>
<feBlend mode="normal" in2="BackgroundImageFix" result="effect1_dropShadow_940_4"/>
<feBlend mode="normal" in="SourceGraphic" in2="effect1_dropShadow_940_4" result="shape"/>
</filter>
</defs>
</svg>
