<svg width="20" height="24" viewBox="0 0 20 24" fill="none" xmlns="http://www.w3.org/2000/svg">
<path d="M10 11.7647C11.5155 11.7647 12.969 11.145 14.0406 10.0418C15.1122 8.93865 15.7143 7.44245 15.7143 5.88235C15.7143 4.32226 15.1122 2.82606 14.0406 1.7229C12.969 0.619746 11.5155 0 10 0C8.48448 0 7.03103 0.619746 5.95939 1.7229C4.88775 2.82606 4.28571 4.32226 4.28571 5.88235C4.28571 7.44245 4.88775 8.93865 5.95939 10.0418C7.03103 11.145 8.48448 11.7647 10 11.7647ZM7.95982 13.9706C3.5625 13.9706 0 17.6379 0 22.1645C0 22.9182 0.59375 23.5294 1.32589 23.5294H18.6741C19.4062 23.5294 20 22.9182 20 22.1645C20 17.6379 16.4375 13.9706 12.0402 13.9706H7.95982Z" fill="currentColor"/>
</svg>
