<svg width="26" height="26" viewBox="0 0 56 56" fill="none" xmlns="http://www.w3.org/2000/svg">
<path d="M9.33398 14H46.6673M37.334 14L36.7026 12.1055C36.0906 10.2696 35.7844 9.35163 35.217 8.67295C34.7158 8.07364 34.0722 7.60975 33.3452 7.32382C32.5217 7 31.5543 7 29.6191 7H26.3823C24.447 7 23.4796 7 22.6562 7.32382C21.9291 7.60975 21.2855 8.07364 20.7843 8.67295C20.2168 9.35163 19.9108 10.2696 19.2988 12.1055L18.6673 14M42.0007 14V37.8C42.0007 41.7205 42.0007 43.6805 41.2377 45.178C40.5666 46.4952 39.4958 47.5659 38.1787 48.237C36.6811 49 34.7211 49 30.8007 49H25.2007C21.2803 49 19.3201 49 17.8227 48.237C16.5056 47.5659 15.4347 46.4952 14.7636 45.178C14.0007 43.6805 14.0007 41.7205 14.0007 37.8V14M32.6673 23.3333V39.6667M23.334 23.3333V39.6667" stroke="#ABABAB" stroke-width="5.33333" stroke-linecap="round" stroke-linejoin="round"/>
</svg>
