<svg width="20" height="23" viewBox="0 0 20 23" fill="none" xmlns="http://www.w3.org/2000/svg">
<g clip-path="url(#clip0_466_839)">
<path d="M4.28571 0C1.91964 0 0 1.91964 0 4.28571V18.5714C0 20.9375 1.91964 22.8571 4.28571 22.8571H17.1429H18.5714C19.3616 22.8571 20 22.2188 20 21.4286C20 20.6384 19.3616 20 18.5714 20V17.1429C19.3616 17.1429 20 16.5045 20 15.7143V1.42857C20 0.638393 19.3616 0 18.5714 0H17.1429H4.28571ZM4.28571 17.1429H15.7143V20H4.28571C3.49554 20 2.85714 19.3616 2.85714 18.5714C2.85714 17.7812 3.49554 17.1429 4.28571 17.1429ZM5.71429 6.42857C5.71429 6.03571 6.03571 5.71429 6.42857 5.71429H15C15.3929 5.71429 15.7143 6.03571 15.7143 6.42857C15.7143 6.82143 15.3929 7.14286 15 7.14286H6.42857C6.03571 7.14286 5.71429 6.82143 5.71429 6.42857ZM6.42857 8.57143H15C15.3929 8.57143 15.7143 8.89286 15.7143 9.28571C15.7143 9.67857 15.3929 10 15 10H6.42857C6.03571 10 5.71429 9.67857 5.71429 9.28571C5.71429 8.89286 6.03571 8.57143 6.42857 8.57143Z" fill="currentColor"/>
</g>
<defs>
<clipPath id="clip0_466_839">
<rect width="20" height="22.8571" fill="currentColor"/>
</clipPath>
</defs>
</svg>
