<svg width="20" height="17" viewBox="0 0 20 17" fill="none" xmlns="http://www.w3.org/2000/svg">
<path d="M6 2.01562C2.6875 2.01562 0 4.7248 0 8.06401C0 11.4032 2.6875 14.1124 6 14.1124H14C17.3125 14.1124 20 11.4032 20 8.06401C20 4.7248 17.3125 2.01562 14 2.01562H6ZM15.5 5.29183C15.8315 5.29183 16.1495 5.42459 16.3839 5.6609C16.6183 5.89721 16.75 6.21772 16.75 6.55192C16.75 6.88611 16.6183 7.20662 16.3839 7.44293C16.1495 7.67924 15.8315 7.812 15.5 7.812C15.1685 7.812 14.8505 7.67924 14.6161 7.44293C14.3817 7.20662 14.25 6.88611 14.25 6.55192C14.25 6.21772 14.3817 5.89721 14.6161 5.6609C14.8505 5.42459 15.1685 5.29183 15.5 5.29183ZM12.25 9.57611C12.25 9.24191 12.3817 8.92141 12.6161 8.6851C12.8505 8.44879 13.1685 8.31603 13.5 8.31603C13.8315 8.31603 14.1495 8.44879 14.3839 8.6851C14.6183 8.92141 14.75 9.24191 14.75 9.57611C14.75 9.9103 14.6183 10.2308 14.3839 10.4671C14.1495 10.7034 13.8315 10.8362 13.5 10.8362C13.1685 10.8362 12.8505 10.7034 12.6161 10.4671C12.3817 10.2308 12.25 9.9103 12.25 9.57611ZM5.25 6.2999C5.25 5.88092 5.58437 5.54385 6 5.54385C6.41563 5.54385 6.75 5.88092 6.75 6.2999V7.30796H7.75C8.16562 7.30796 8.5 7.64504 8.5 8.06401C8.5 8.48299 8.16562 8.82006 7.75 8.82006H6.75V9.82812C6.75 10.2471 6.41563 10.5842 6 10.5842C5.58437 10.5842 5.25 10.2471 5.25 9.82812V8.82006H4.25C3.83437 8.82006 3.5 8.48299 3.5 8.06401C3.5 7.64504 3.83437 7.30796 4.25 7.30796H5.25V6.2999Z" fill="currentColor"/>
</svg>
