<svg width="20" height="23" viewBox="0 0 20 23" fill="none" xmlns="http://www.w3.org/2000/svg">
<path d="M7.11161 0.216808C7.45982 -0.109085 8 -0.10462 8.34821 0.221273C9.58036 1.37752 10.7366 2.62306 11.817 3.97127C12.308 3.32842 12.8661 2.62752 13.4688 2.05609C13.8214 1.72574 14.3661 1.72574 14.7188 2.06056C16.2634 3.53377 17.5714 5.4802 18.4911 7.32842C19.3973 9.14984 20 11.0115 20 12.324C20 18.0204 15.5446 22.8329 10 22.8329C4.39286 22.8329 0 18.0159 0 12.3195C0 10.6052 0.794643 8.51145 2.02679 6.44002C3.27232 4.33734 5.03125 2.14538 7.11161 0.216808ZM10.0759 18.5472C11.2054 18.5472 12.2054 18.2347 13.1473 17.6097C15.0268 16.2972 15.5313 13.6722 14.4018 11.6097C14.2009 11.2079 13.6875 11.1811 13.3973 11.5204L12.2723 12.8284C11.9777 13.1677 11.4464 13.1588 11.1696 12.8061C10.433 11.8686 9.11607 10.1945 8.36607 9.24359C8.08482 8.88645 7.54911 8.88199 7.26339 9.23913C5.75446 11.1365 4.99554 12.3329 4.99554 13.6766C5 16.7347 7.25893 18.5472 10.0759 18.5472Z" fill="currentColor"/>
</svg>
