<svg width="20" height="18" viewBox="0 0 20 18" fill="none" xmlns="http://www.w3.org/2000/svg">
<path d="M0.366227 7.8677C-0.122077 8.356 -0.122077 9.14901 0.366227 9.63731L5.36647 14.6376C5.85478 15.1259 6.64779 15.1259 7.13609 14.6376C7.6244 14.1493 7.6244 13.3562 7.13609 12.8679L4.26876 10.0006L12.4996 10.0006C13.1911 10.0006 13.7497 9.44199 13.7497 8.75055C13.7497 8.05911 13.1911 7.50049 12.4996 7.50049L4.26876 7.50049L7.13609 4.63316C7.6244 4.14486 7.6244 3.35185 7.13609 2.86354C6.64778 2.37524 5.85478 2.37524 5.36647 2.86354L0.366227 7.86379L0.366227 7.8677ZM13.7497 15.0009C13.0583 15.0009 12.4996 15.5595 12.4996 16.2509C12.4996 16.9424 13.0583 17.501 13.7497 17.501L16.2498 17.501C18.3202 17.501 20 15.8212 20 13.7508L20 3.75031C20 1.67989 18.3202 0.000122217 16.2498 0.000122398L13.7497 0.000122617C13.0583 0.000122677 12.4996 0.558743 12.4996 1.25018C12.4996 1.94162 13.0583 2.50024 13.7497 2.50024L16.2498 2.50024C16.9413 2.50024 17.4999 3.05887 17.4999 3.75031L17.4999 13.7508C17.4999 14.4422 16.9413 15.0009 16.2498 15.0009L13.7497 15.0009Z" fill="currentColor"/>
</svg>
