<svg width="100" height="50" viewBox="0 0 187 62" fill="none" xmlns="http://www.w3.org/2000/svg">
<rect y="0.000976562" width="187" height="62" rx="20" fill="#493971"/>
<path d="M41.5605 31.7656H38.3086V26.8145H41.5605V31.7656ZM49.1631 28.1475H30.9551V25.584H49.1631V28.1475ZM48.9434 22.6836H34.2217V26.9902H30.9551V20.0615H48.9434V22.6836ZM52.0049 32.7471H27.8936V30.1543H52.0049V32.7471ZM49.0166 40.9062H33.958V43.6016H30.7354V38.6064H45.7939V36.8633H30.7207V34.4463H49.0166V40.9062ZM49.7344 45.3594H30.7354V42.8545H49.7344V45.3594ZM60.9258 21.0576C62.2539 21.0576 63.4355 21.4434 64.4707 22.2148C65.5059 22.9766 66.3213 24.0654 66.917 25.4814C67.5127 26.8877 67.8105 28.5283 67.8105 30.4033C67.8105 32.2881 67.5127 33.9385 66.917 35.3545C66.3213 36.7607 65.501 37.8496 64.4561 38.6211C63.4209 39.3926 62.2441 39.7783 60.9258 39.7783C59.5977 39.7783 58.4111 39.3926 57.3662 38.6211C56.3213 37.8496 55.5059 36.7607 54.9199 35.3545C54.334 33.9385 54.041 32.2881 54.041 30.4033C54.041 28.5283 54.334 26.8877 54.9199 25.4814C55.5059 24.0654 56.3213 22.9766 57.3662 22.2148C58.4111 21.4434 59.5977 21.0576 60.9258 21.0576ZM60.9258 23.9873C60.1836 23.9775 59.5244 24.2314 58.9482 24.749C58.3818 25.2666 57.9424 26.0088 57.6299 26.9756C57.3271 27.9326 57.1758 29.0752 57.1758 30.4033C57.1758 31.7314 57.3271 32.8838 57.6299 33.8604C57.9424 34.8271 58.3867 35.5645 58.9629 36.0723C59.5391 36.5703 60.1934 36.8193 60.9258 36.8193C61.668 36.8193 62.3223 36.5703 62.8887 36.0723C63.4648 35.5645 63.9043 34.8271 64.207 33.8604C64.5098 32.8838 64.6611 31.7314 64.6611 30.4033C64.6611 29.0654 64.5098 27.918 64.207 26.9609C63.9043 25.9941 63.4648 25.2568 62.8887 24.749C62.3223 24.2314 61.668 23.9775 60.9258 23.9873ZM74.5488 45.5791H71.2969V19.124H74.5488V45.5791ZM78.6357 32.0439H73.8164V29.3047H78.6357V32.0439ZM100.477 45.5645H97.2246V19.124H100.477V45.5645ZM104.402 32.1758H99.6416V29.4805H104.402V32.1758ZM93.4893 21.8926C93.4893 24.5879 93.084 27.0977 92.2734 29.4219C91.4727 31.7363 90.1787 33.8652 88.3916 35.8086C86.6045 37.7422 84.29 39.417 81.4482 40.833L79.6172 38.3135C82.0098 37.1025 83.9922 35.7207 85.5645 34.168C87.1465 32.6152 88.3281 30.8721 89.1094 28.9385C89.8906 26.9951 90.2812 24.8369 90.2812 22.4639V21.8926H93.4893ZM91.9365 24.5732H80.9941V21.8926H91.9365V24.5732ZM127.781 45.5791H124.485V19.124H127.781V45.5791ZM119.886 21.9365C119.886 24.7002 119.485 27.2344 118.685 29.5391C117.894 31.834 116.59 33.9482 114.773 35.8818C112.957 37.8057 110.55 39.4805 107.552 40.9062L105.823 38.2988C108.372 37.0879 110.442 35.7109 112.034 34.168C113.626 32.625 114.793 30.8916 115.535 28.9678C116.277 27.0439 116.648 24.8857 116.648 22.4932V21.9365H119.886ZM118.113 24.5146H107.171V21.9365H118.113V24.5146Z" fill="white"/>
<path d="M148.242 19.1172L159.237 31.0442" stroke="white" stroke-width="5" stroke-linecap="round"/>
<path d="M159.336 31.2324L148.342 43.1594" stroke="white" stroke-width="5" stroke-linecap="round"/>
</svg>
