<svg width="18" height="13" viewBox="0 0 18 13" fill="none" xmlns="http://www.w3.org/2000/svg">
<path d="M17.9265 5.74238C17.8997 5.6836 17.264 4.27214 15.8598 2.86793C13.981 0.992018 11.613 0 9.00054 0C6.38806 0 4.02013 0.992018 2.1435 2.86793C0.739287 4.27214 0.103582 5.6836 0.0745547 5.74238C0.0253915 5.85385 0 5.97434 0 6.09616C0 6.21798 0.0253915 6.33847 0.0745547 6.44993C0.101405 6.50944 0.73711 7.92018 2.14205 9.32439C4.02013 11.2003 6.38806 12.1916 9.00054 12.1916C11.613 12.1916 13.981 11.2003 15.8569 9.32439C17.2618 7.92018 17.8975 6.50944 17.9244 6.44993C17.9739 6.33862 17.9996 6.21821 18 6.09639C18.0004 5.97456 17.9753 5.854 17.9265 5.74238ZM14.584 8.13716C13.0259 9.67127 11.1479 10.4499 9.00054 10.4499C6.85323 10.4499 4.97514 9.67127 3.41926 8.13644C2.80703 7.53065 2.28039 6.84409 1.85395 6.0958C2.28051 5.3478 2.80714 4.6615 3.41926 4.05588C4.97586 2.52032 6.85323 1.74166 9.00054 1.74166C11.1479 1.74166 13.0252 2.52032 14.5818 4.05588C15.194 4.66144 15.7206 5.34775 16.1471 6.0958C15.7206 6.84405 15.194 7.5306 14.5818 8.13644L14.584 8.13716ZM9.00054 2.90276C8.36902 2.90276 7.75168 3.09003 7.22659 3.44088C6.70149 3.79174 6.29223 4.29042 6.05056 4.87387C5.80889 5.45732 5.74566 6.09934 5.86886 6.71873C5.99206 7.33811 6.29617 7.90706 6.74272 8.35361C7.18928 8.80017 7.75822 9.10427 8.37761 9.22748C8.997 9.35068 9.63901 9.28745 10.2225 9.04578C10.8059 8.8041 11.3046 8.39484 11.6555 7.86975C12.0063 7.34466 12.1936 6.72732 12.1936 6.0958C12.1926 5.24924 11.8559 4.43764 11.2573 3.83904C10.6587 3.24044 9.84709 2.90372 9.00054 2.90276ZM9.00054 7.54718C8.71349 7.54718 8.43288 7.46205 8.1942 7.30257C7.95552 7.14309 7.76949 6.91642 7.65964 6.65122C7.54979 6.38601 7.52105 6.09419 7.57705 5.81265C7.63305 5.53111 7.77128 5.27249 7.97426 5.06952C8.17724 4.86654 8.43585 4.72831 8.71739 4.6723C8.99893 4.6163 9.29076 4.64504 9.55596 4.7549C9.82117 4.86475 10.0478 5.05077 10.2073 5.28945C10.3668 5.52813 10.4519 5.80874 10.4519 6.0958C10.4519 6.48073 10.299 6.84989 10.0268 7.12208C9.75464 7.39426 9.38547 7.54718 9.00054 7.54718Z" fill="black"/>
</svg>
