<svg width="330" height="82" viewBox="0 0 430 82" fill="none" xmlns="http://www.w3.org/2000/svg">
<path d="M40.8831 10.9941C40.8831 16.9121 39.5794 22.4639 36.972 27.6494C34.3645 32.835 30.512 37.2881 25.4143 41.0088C20.3167 44.7295 14.179 47.293 7.00125 48.6992L1.63992 38.1963C7.76297 37.083 12.9339 35.1055 17.1526 32.2637C21.4007 29.4219 24.5647 26.1406 26.6448 22.4199C28.7542 18.6699 29.8089 14.8613 29.8089 10.9941V5.3252H40.8831V10.9941ZM43.3001 10.9941C43.3001 14.9492 44.3401 18.8018 46.4202 22.5518C48.5003 26.2725 51.6643 29.5537 55.9124 32.3955C60.1897 35.208 65.4192 37.1416 71.6009 38.1963L66.1516 48.6992C58.9739 47.293 52.8362 44.7588 47.7386 41.0967C42.6702 37.4346 38.847 33.0107 36.2688 27.8252C33.72 22.6396 32.4456 17.0293 32.4456 10.9941V5.3252H43.3001V10.9941ZM73.93 71.8584H0.233673V61.5312H73.93V71.8584ZM146.088 81.3945H133.256V0.710938H146.088V81.3945ZM125.478 17.9375H79.9505V7.78613H125.478V17.9375ZM77.7971 53.0938C86.8499 53.0938 95.6829 52.9326 104.296 52.6104C112.909 52.2588 120.937 51.6436 128.378 50.7646L129.081 60.125C121.493 61.3848 113.642 62.2344 105.527 62.6738C97.4407 63.084 88.5784 63.3184 78.9397 63.377L77.7971 53.0938ZM98.7151 55.8623H86.4983V15.7402H98.7151V55.8623ZM118.974 55.8623H106.669V15.7402H118.974V55.8623ZM221.63 47.6885H164.238V37.6689H221.63V47.6885ZM229.496 71.9902H155.8V61.6191H229.496V71.9902ZM221.103 17.4541H176.718V41.7998H164.238V7.30273H221.103V17.4541ZM294.316 15.8721H259.775V5.80859H294.316V15.8721ZM301.083 11.2139C301.054 14.7881 300.995 17.9229 300.908 20.6182C300.82 23.2842 300.541 26.4629 300.073 30.1543C299.633 33.8457 298.959 37.874 298.051 42.2393L285.395 42.415C286.42 38.0791 287.167 34.0361 287.636 30.2861C288.105 26.5068 288.383 23.2402 288.471 20.4863C288.588 17.7324 288.647 14.6416 288.647 11.2139V5.80859H301.083V11.2139ZM259.379 33.6699L257.709 23.2988L290.317 22.0684V31.0771L259.379 33.6699ZM285.702 77.1318H273.002V44.5244H285.702V77.1318ZM323.451 81.3945H310.663V0.710938H323.451V81.3945ZM253.271 40.6133C264.286 40.5547 273.954 40.3936 282.275 40.1299C290.595 39.8662 298.637 39.3242 306.401 38.5039L307.324 47.8203C299.179 48.9336 290.771 49.71 282.099 50.1494C273.456 50.5596 264.33 50.7646 254.721 50.7646L253.271 40.6133ZM405.278 71.9902H331.581V61.751H405.278V71.9902ZM372.275 16.1797C372.275 21.9219 371.03 27.1807 368.539 31.9561C366.049 36.7021 362.314 40.7305 357.333 44.041C352.353 47.3516 346.318 49.6221 339.228 50.8525L334.306 40.6572C340.37 39.7197 345.439 38.0205 349.511 35.5596C353.613 33.0693 356.645 30.1543 358.608 26.8145C360.571 23.4746 361.552 19.9297 361.552 16.1797V11.9609H372.275V16.1797ZM374.911 16.1797C374.911 19.9297 375.908 23.46 377.9 26.7705C379.892 30.0518 382.983 32.8936 387.172 35.2959C391.362 37.6689 396.576 39.3242 402.817 40.2617L397.895 50.3252C390.688 49.0361 384.55 46.7949 379.482 43.6016C374.443 40.3789 370.649 36.4238 368.1 31.7363C365.551 27.0488 364.277 21.8633 364.277 16.1797V11.9609H374.911V16.1797ZM398.774 17.2783H337.69V7.30273H398.774V17.2783ZM427.997 53.6211H415.517L414.155 9.36816H429.404L427.997 53.6211ZM421.757 73.8799C420.322 73.8799 418.989 73.5137 417.758 72.7812C416.528 72.0488 415.561 71.082 414.858 69.8809C414.184 68.6504 413.847 67.3174 413.847 65.8818C413.847 64.5049 414.184 63.2158 414.858 62.0146C415.561 60.7842 416.528 59.8174 417.758 59.1143C418.989 58.4111 420.322 58.0596 421.757 58.0596C423.163 58.0596 424.467 58.4111 425.668 59.1143C426.899 59.8174 427.88 60.7842 428.613 62.0146C429.345 63.2158 429.711 64.5049 429.711 65.8818C429.711 67.3174 429.345 68.6504 428.613 69.8809C427.88 71.082 426.899 72.0488 425.668 72.7812C424.467 73.5137 423.163 73.8799 421.757 73.8799Z" fill="#000743"/>
</svg>
