<svg width="30" height="30" viewBox="0 0 46 46" fill="none" xmlns="http://www.w3.org/2000/svg">
<path fill-rule="evenodd" clip-rule="evenodd" d="M9.19961 20.7006C9.19961 17.6506 10.4112 14.7255 12.5679 12.5689C14.7246 10.4122 17.6496 9.20059 20.6996 9.20059C23.7496 9.20059 26.6747 10.4122 28.8313 12.5689C30.988 14.7255 32.1996 17.6506 32.1996 20.7006C32.1996 23.7506 30.988 26.6756 28.8313 28.8323C26.6747 30.989 23.7496 32.2006 20.6996 32.2006C17.6496 32.2006 14.7246 30.989 12.5679 28.8323C10.4112 26.6756 9.19961 23.7506 9.19961 20.7006ZM20.6996 4.60059C18.1485 4.60059 15.634 5.2068 13.3632 6.36928C11.0923 7.53175 9.13025 9.21721 7.63861 11.2868C6.14697 13.3563 5.16847 15.7507 4.78375 18.2726C4.39902 20.7945 4.61909 23.3717 5.42581 25.7919C6.23253 28.212 7.60281 30.4058 9.42373 32.1925C11.2447 33.9792 13.4641 35.3076 15.8991 36.0683C18.3341 36.8289 20.9151 37 23.4292 36.5675C25.9434 36.135 28.3188 35.1112 30.3596 33.5806C30.425 33.6676 30.4965 33.7498 30.5735 33.8267L37.4735 40.7267C37.9073 41.1456 38.4883 41.3775 39.0913 41.3722C39.6944 41.367 40.2713 41.1251 40.6977 40.6987C41.1241 40.2722 41.366 39.6954 41.3713 39.0923C41.3765 38.4893 41.1447 37.9083 40.7257 37.4745L33.8257 30.5745C33.7488 30.4974 33.6666 30.426 33.5796 30.3606C35.3736 27.9686 36.466 25.1243 36.7346 22.1465C37.0031 19.1686 36.437 16.1748 35.0999 13.5004C33.7627 10.8261 31.7073 8.57702 29.1639 7.00511C26.6205 5.43319 23.6896 4.60059 20.6996 4.60059Z" fill="black"/>
</svg>
