<?xml version="1.0" encoding="iso-8859-1"?>
<!-- Uploaded to: SVG Repo, www.svgrepo.com, Generator: SVG Repo Mixer Tools -->
<svg height="80px" width="80px" version="1.1" id="Layer_1" xmlns="http://www.w3.org/2000/svg" xmlns:xlink="http://www.w3.org/1999/xlink" 
	 viewBox="0 0 280.027 280.027" xml:space="preserve">
<g>
	<path style="fill:#3E4E5C;" d="M140.014,69.884c57.834,0,105.01,48.313,105.01,105.78c0,57.476-47.176,104.363-105.01,104.363
		c-57.843,0-105.01-47.447-105.01-104.923C35.002,117.62,82.17,69.884,140.014,69.884z"/>
	<path style="fill:#EBEBEB;" d="M140.014,94.693c44.192,0,80.21,36.902,80.21,80.805c0,43.912-36.019,79.703-80.21,79.703
		c-44.183,0-80.21-36.246-80.21-80.14C59.802,131.158,95.83,94.693,140.014,94.693z"/>
	<path style="fill:#324D5B;" d="M105.053,34.96c0-19.296,15.673-34.96,34.986-34.96c19.322,0,34.986,15.664,34.986,34.968
		c0,16.312-11.227,29.893-26.349,33.752v10.037h-17.283V68.712C116.289,64.853,105.053,51.271,105.053,34.96z M131.411,59.795
		V43.649h17.274v16.145c10.317-3.57,17.764-13.231,17.764-24.712c0-14.5-11.831-26.253-26.419-26.253
		c-14.579,0-26.401,11.761-26.401,26.253C113.638,46.555,121.093,56.215,131.411,59.795z"/>
	<path style="fill:#E2574C;" d="M233.035,73.306l8.418,8.375c4.638,4.62,4.638,12.129,0,16.749l-2.8,2.8
		c-4.638,4.62-12.181,4.62-16.819,0l-8.41-8.383c-4.647-4.629-4.647-12.12,0-16.749l2.792-2.792
		C220.854,68.685,228.389,68.685,233.035,73.306z"/>
	<path style="fill:#51BBA8;" d="M46.886,73.306l-8.34,8.375c-4.603,4.62-4.603,12.129,0,16.749l2.774,2.8
		c4.603,4.62,12.076,4.62,16.679,0l8.331-8.383c4.603-4.629,4.603-12.12,0-16.749l-2.765-2.792
		C58.953,68.685,51.498,68.685,46.886,73.306z"/>
	<path style="fill:#E2574C;" d="M183.768,166.266h-35.003v-43.754c0-4.83-3.912-8.751-8.751-8.751s-8.751,3.92-8.751,8.751v52.505
		c0,4.839,3.912,8.751,8.751,8.751h43.754c4.839,0,8.751-3.912,8.751-8.751S188.606,166.266,183.768,166.266z"/>
</g>
</svg>