<svg width="300" height="300" viewBox="0 0 300 300" fill="none" xmlns="http://www.w3.org/2000/svg">
<path d="M55.5017 55.4997C57.2408 53.7581 59.3062 52.3765 61.5798 51.4338C63.8533 50.4911 66.2904 50.0059 68.7517 50.0059C71.2129 50.0059 73.65 50.4911 75.9236 51.4338C78.1971 52.3765 80.2625 53.7581 82.0017 55.4997L150.002 123.475L218.002 55.4997C219.742 53.7597 221.807 52.3794 224.081 51.4378C226.354 50.4961 228.791 50.0114 231.252 50.0114C233.712 50.0114 236.149 50.4961 238.423 51.4378C240.696 52.3794 242.762 53.7597 244.502 55.4997C246.242 57.2397 247.622 59.3054 248.564 61.5789C249.505 63.8523 249.99 66.289 249.99 68.7497C249.99 71.2105 249.505 73.6471 248.564 75.9206C247.622 78.194 246.242 80.2597 244.502 81.9997L176.527 150L244.502 218C248.016 221.514 249.99 226.28 249.99 231.25C249.99 236.219 248.016 240.986 244.502 244.5C240.988 248.014 236.221 249.988 231.252 249.988C226.282 249.988 221.516 248.014 218.002 244.5L150.002 176.525L82.0017 244.5C78.4876 248.014 73.7214 249.988 68.7517 249.988C63.782 249.988 59.0158 248.014 55.5017 244.5C51.9876 240.986 50.0133 236.219 50.0133 231.25C50.0133 226.28 51.9876 221.514 55.5017 218L123.477 150L55.5017 81.9997C53.7601 80.2606 52.3784 78.1952 51.4357 75.9216C50.493 73.6481 50.0078 71.211 50.0078 68.7497C50.0078 66.2885 50.493 63.8514 51.4357 61.5778C52.3784 59.3043 53.7601 57.2388 55.5017 55.4997Z" fill="#F24E1E"/>
</svg>
