<svg width="21" height="21" viewBox="0 0 21 21" fill="none" xmlns="http://www.w3.org/2000/svg">
<path d="M10.5 21C13.2848 21 15.9555 19.8938 17.9246 17.9246C19.8938 15.9555 21 13.2848 21 10.5C21 7.71523 19.8938 5.04451 17.9246 3.07538C15.9555 1.10625 13.2848 0 10.5 0C7.71523 0 5.04451 1.10625 3.07538 3.07538C1.10625 5.04451 0 7.71523 0 10.5C0 13.2848 1.10625 15.9555 3.07538 17.9246C5.04451 19.8938 7.71523 21 10.5 21ZM8.85938 13.7812H9.84375V11.1562H8.85938C8.31387 11.1562 7.875 10.7174 7.875 10.1719C7.875 9.62637 8.31387 9.1875 8.85938 9.1875H10.8281C11.3736 9.1875 11.8125 9.62637 11.8125 10.1719V13.7812H12.1406C12.6861 13.7812 13.125 14.2201 13.125 14.7656C13.125 15.3111 12.6861 15.75 12.1406 15.75H8.85938C8.31387 15.75 7.875 15.3111 7.875 14.7656C7.875 14.2201 8.31387 13.7812 8.85938 13.7812ZM10.5 5.25C10.8481 5.25 11.1819 5.38828 11.4281 5.63442C11.6742 5.88056 11.8125 6.2144 11.8125 6.5625C11.8125 6.9106 11.6742 7.24444 11.4281 7.49058C11.1819 7.73672 10.8481 7.875 10.5 7.875C10.1519 7.875 9.81806 7.73672 9.57192 7.49058C9.32578 7.24444 9.1875 6.9106 9.1875 6.5625C9.1875 6.2144 9.32578 5.88056 9.57192 5.63442C9.81806 5.38828 10.1519 5.25 10.5 5.25Z" fill="#D65757"/>
</svg>
