<svg width="573" height="783" viewBox="0 0 573 783" fill="none" xmlns="http://www.w3.org/2000/svg">
<rect y="23.001" width="573" height="742" rx="20" fill="#F9F9F9"/>
<path d="M449.4 446.601L500.6 461.401C450.2 605.401 357 689.401 213.8 734.201C208.2 722.201 193 699.001 183.4 687.401C321.8 651.001 407.8 577.001 449.4 446.601ZM295 449.801C335.4 568.201 421.8 653.401 564.2 685.401C552.6 696.601 537 719.401 529.4 733.401C379.4 694.201 297 602.601 247 464.201L295 449.801ZM190.6 420.601H557V467.801H190.6V420.601ZM347.8 357.401H397.4V449.401H347.8V357.401Z" fill="#4300D7" fill-opacity="0.18"/>
<path d="M306.25 242.61C306.25 248.34 305.99 254.72 305.469 261.751C305.208 268.782 304.818 275.813 304.297 282.845C303.776 289.876 303.125 296.647 302.344 303.157C301.823 309.407 301.172 314.616 300.391 318.782L265.234 324.251C264.974 321.126 264.583 316.829 264.062 311.36C263.802 305.631 263.542 299.511 263.281 293.001C263.021 286.23 262.76 279.59 262.5 273.079C262.24 266.308 262.109 260.449 262.109 255.501V84.4072C262.109 76.8551 258.464 70.7354 251.172 66.0479C243.88 61.0999 231.641 56.4124 214.453 51.9854L222.266 34.7979C228.516 35.5791 235.807 36.6208 244.141 37.9229C252.474 39.2249 260.807 40.6572 269.141 42.2197C277.474 43.7822 285.286 45.2145 292.578 46.5166C300.13 47.8187 306.38 48.8604 311.328 49.6416C310.547 51.9854 309.896 55.1104 309.375 59.0166C308.854 62.9229 308.333 66.8291 307.812 70.7354C307.292 74.6416 306.901 78.1572 306.641 81.2822C306.38 84.1468 306.25 85.7093 306.25 85.9697V181.673C311.979 181.152 318.229 180.631 325 180.11C331.771 179.329 338.542 178.548 345.312 177.767C352.083 176.725 358.594 175.683 364.844 174.642C371.354 173.6 376.953 172.558 381.641 171.517L378.516 207.063C374.609 207.063 369.661 207.063 363.672 207.063C357.943 207.063 351.693 207.063 344.922 207.063C338.411 207.063 331.771 207.063 325 207.063C318.229 207.063 311.979 207.063 306.25 207.063V242.61ZM330.469 399.642C314.323 399.121 297.917 398.86 281.25 398.86C264.583 398.86 248.307 398.991 232.422 399.251C216.536 399.772 201.302 400.293 186.719 400.813C172.396 401.595 159.505 402.246 148.047 402.767C137.891 403.287 130.339 401.204 125.391 396.517C120.703 391.829 118.359 386.491 118.359 380.501V339.485C118.359 334.017 118.099 329.72 117.578 326.595C117.057 323.209 115.625 320.475 113.281 318.392C111.198 316.048 107.943 314.095 103.516 312.532C99.0885 310.97 92.8385 309.147 84.7656 307.063L93.3594 289.095C97.0052 289.876 102.083 290.787 108.594 291.829C115.104 292.61 121.875 293.522 128.906 294.563C136.198 295.345 143.099 296.256 149.609 297.298C156.38 298.079 161.849 298.86 166.016 299.642C165.755 301.204 165.495 303.287 165.234 305.892C164.974 308.496 164.714 311.36 164.453 314.485C164.193 317.35 163.932 320.345 163.672 323.47C163.411 326.334 163.281 328.938 163.281 331.282V368.001C163.281 372.428 163.672 375.032 164.453 375.813C165.234 376.595 167.839 377.116 172.266 377.376C181.901 377.376 193.75 376.985 207.812 376.204C222.135 375.683 236.849 374.772 251.953 373.47C267.318 372.168 282.422 370.735 297.266 369.173C312.109 367.871 325 366.438 335.938 364.876L330.469 399.642ZM217.969 215.267C217.969 223.86 215.755 232.194 211.328 240.267C207.161 248.079 201.302 255.11 193.75 261.36C186.198 267.35 177.214 272.168 166.797 275.813C156.38 279.199 145.182 280.892 133.203 280.892C121.224 280.892 110.026 279.069 99.6094 275.423C89.4531 271.777 80.599 266.959 73.0469 260.97C65.4948 254.98 59.5052 248.079 55.0781 240.267C50.9115 232.194 48.8281 223.86 48.8281 215.267C48.8281 205.892 51.0417 197.168 55.4688 189.095C59.8958 181.022 65.8854 174.121 73.4375 168.392C80.9896 162.662 89.8438 158.235 100 155.11C110.417 151.725 121.484 150.032 133.203 150.032C145.703 150.032 157.161 151.855 167.578 155.501C177.995 158.886 186.849 163.704 194.141 169.954C201.693 175.944 207.552 182.845 211.719 190.657C215.885 198.47 217.969 206.673 217.969 215.267ZM94.9219 213.704C94.9219 219.694 95.9635 225.293 98.0469 230.501C100.13 235.449 102.865 239.876 106.25 243.782C109.896 247.428 114.062 250.423 118.75 252.767C123.438 254.85 128.385 255.892 133.594 255.892C138.542 255.892 143.229 254.85 147.656 252.767C152.344 250.683 156.51 247.819 160.156 244.173C163.802 240.267 166.667 235.84 168.75 230.892C171.094 225.683 172.266 219.954 172.266 213.704C172.266 208.235 171.224 202.897 169.141 197.688C167.057 192.48 164.193 187.923 160.547 184.017C156.901 180.11 152.734 176.985 148.047 174.642C143.359 172.298 138.542 171.126 133.594 171.126C128.385 171.126 123.438 172.168 118.75 174.251C114.062 176.334 109.896 179.329 106.25 183.235C102.865 186.881 100.13 191.308 98.0469 196.517C95.9635 201.725 94.9219 207.454 94.9219 213.704ZM244.531 135.188C238.802 134.928 231.51 134.928 222.656 135.188C214.062 135.188 204.688 135.319 194.531 135.579C184.375 135.579 173.828 135.709 162.891 135.97C152.214 136.23 141.927 136.621 132.031 137.142C122.135 137.402 112.891 137.662 104.297 137.923C95.9635 138.183 89.0625 138.444 83.5938 138.704C80.2083 138.704 75.7812 138.965 70.3125 139.485C65.1042 140.006 59.6354 140.527 53.9062 141.048C48.4375 141.569 43.099 142.22 37.8906 143.001C32.6823 143.522 28.5156 144.043 25.3906 144.563L8.59375 107.063C11.7188 107.845 16.0156 108.756 21.4844 109.798C27.2135 110.579 33.0729 111.36 39.0625 112.142C45.3125 112.923 51.3021 113.574 57.0312 114.095C62.7604 114.616 67.3177 114.876 70.7031 114.876C79.2969 114.616 90.8854 114.355 105.469 114.095C120.312 113.574 136.198 112.793 153.125 111.751C170.052 110.709 187.109 109.407 204.297 107.845C221.484 106.282 236.849 104.329 250.391 101.985L244.531 135.188ZM186.719 91.0479C182.552 91.0479 177.734 91.0479 172.266 91.0479C167.057 91.0479 161.589 91.1781 155.859 91.4385C150.391 91.4385 145.052 91.5687 139.844 91.8291C134.896 91.8291 130.729 91.8291 127.344 91.8291C125.521 91.8291 122.786 91.9593 119.141 92.2197C115.495 92.4801 111.458 92.8708 107.031 93.3916C102.604 93.652 98.1771 94.0426 93.75 94.5635C89.3229 94.8239 85.4167 95.2145 82.0312 95.7354L62.8906 62.1416C66.0156 62.9229 70.3125 63.7041 75.7812 64.4854C81.25 65.2666 86.849 66.0479 92.5781 66.8291C98.5677 67.3499 104.167 67.8708 109.375 68.3916C114.844 68.652 119.01 68.7822 121.875 68.7822C125 68.7822 129.427 68.652 135.156 68.3916C141.146 67.8708 147.526 67.3499 154.297 66.8291C161.068 66.0479 167.969 65.2666 175 64.4854C182.031 63.7041 188.411 62.9229 194.141 62.1416L186.719 91.0479Z" fill="#4010A8" fill-opacity="0.13"/>
<g filter="url(#filter0_d_767_4)">
<circle cx="286" cy="373.001" r="180" fill="white"/>
<circle cx="286" cy="373.001" r="170" stroke="#493971" stroke-width="20"/>
</g>
<g filter="url(#filter1_d_767_4)">
<path d="M370.814 308.165C367.396 308.458 363.93 308.849 360.414 309.337C356.996 309.825 354.408 310.313 352.65 310.802L346.059 298.497C345.277 299.864 344.398 301.231 343.422 302.599C342.543 303.868 341.664 305.138 340.785 306.407C343.031 308.751 345.521 311.241 348.256 313.878C350.99 316.417 353.676 318.907 356.312 321.349C359.047 323.79 361.586 326.085 363.93 328.233C366.371 330.284 368.471 331.944 370.229 333.214L358.217 343.907C355.189 339.415 351.576 334.483 347.377 329.112C343.275 323.741 339.174 318.761 335.072 314.171C329.896 320.714 324.135 326.866 317.787 332.628C311.439 338.39 304.555 343.907 297.133 349.181L292.299 344.054C298.061 339.464 303.383 334.483 308.266 329.112C313.246 323.644 317.641 318.028 321.449 312.267C325.258 306.505 328.529 300.646 331.264 294.688C333.998 288.731 336.049 282.97 337.416 277.403C334.877 277.501 332.729 277.599 330.971 277.696C329.311 277.696 327.211 277.794 324.672 277.989C323.598 278.087 322.133 278.233 320.277 278.429C318.52 278.624 316.615 278.868 314.564 279.161C312.611 279.356 310.658 279.601 308.705 279.894C306.752 280.187 305.043 280.479 303.578 280.772L295.082 266.71C296.449 267.003 298.109 267.345 300.062 267.735C302.016 268.028 304.066 268.321 306.215 268.614C308.363 268.81 310.463 269.005 312.514 269.2C314.662 269.396 316.566 269.493 318.227 269.493C325.258 269.591 331.459 269.347 336.83 268.761C342.201 268.077 347.719 267.052 353.383 265.685L358.217 270.958C356.654 275.938 354.848 280.675 352.797 285.167C350.844 289.659 348.598 294.054 346.059 298.351C350.062 299.034 353.432 299.474 356.166 299.669C358.998 299.767 361.586 299.767 363.93 299.669C364.906 299.571 365.932 299.571 367.006 299.669C368.08 299.669 369.35 299.62 370.814 299.522V264.22C370.814 262.853 370.57 261.632 370.082 260.558C369.691 259.483 368.91 258.507 367.738 257.628C366.664 256.651 365.15 255.772 363.197 254.991C361.244 254.21 358.754 253.429 355.727 252.647L359.096 246.349C361.342 246.642 363.783 247.032 366.42 247.521C369.154 247.911 371.84 248.399 374.477 248.985C377.113 249.474 379.652 250.011 382.094 250.597C384.633 251.085 386.781 251.573 388.539 252.062C388.344 252.94 388.148 254.112 387.953 255.577C387.758 256.944 387.562 258.36 387.367 259.825C387.172 261.192 387.025 262.413 386.928 263.487C386.83 264.562 386.781 265.147 386.781 265.245V334.386C386.781 337.413 386.684 340.88 386.488 344.786C386.391 348.692 386.195 352.647 385.902 356.651C385.707 360.558 385.463 364.317 385.17 367.931C384.877 371.544 384.633 374.571 384.438 377.013L371.986 378.624C371.791 376.769 371.645 374.474 371.547 371.739C371.449 369.103 371.303 366.271 371.107 363.243C371.01 360.216 370.912 357.14 370.814 354.015C370.814 350.89 370.814 347.911 370.814 345.079V308.165ZM382.826 240.05C385.17 240.343 387.758 240.782 390.59 241.368C393.52 241.856 396.4 242.394 399.232 242.979C402.064 243.468 404.799 244.005 407.436 244.591C410.072 245.079 412.27 245.519 414.027 245.909C413.93 246.788 413.783 247.96 413.588 249.425C413.49 250.89 413.393 252.306 413.295 253.673C413.197 255.04 413.1 256.31 413.002 257.481C412.904 258.556 412.855 259.142 412.855 259.239V339.659C412.855 342.687 412.758 346.153 412.562 350.06C412.465 353.868 412.27 357.774 411.977 361.778C411.781 365.685 411.488 369.444 411.098 373.058C410.805 376.671 410.463 379.698 410.072 382.14L397.328 383.897C397.133 382.042 396.986 379.747 396.889 377.013C396.791 374.376 396.693 371.495 396.596 368.37C396.498 365.343 396.4 362.267 396.303 359.142C396.303 356.017 396.303 353.038 396.303 350.206V258.653C396.303 255.821 395.18 253.478 392.934 251.622C390.688 249.767 386.391 248.058 380.043 246.495L382.826 240.05Z" fill="#2B2B2B"/>
</g>
<g filter="url(#filter2_d_767_4)">
<path d="M259.902 423.435C264.297 423.044 268.496 422.653 272.5 422.263C276.602 421.774 280.361 421.286 283.779 420.798C283.193 422.946 282.607 425.144 282.021 427.39C281.533 429.538 280.996 431.638 280.41 433.688C278.164 433.493 275.625 433.396 272.793 433.396C269.961 433.298 266.982 433.249 263.857 433.249C252.92 433.249 243.594 433.347 235.879 433.542C228.164 433.737 221.377 434.03 215.518 434.421C209.658 434.714 204.434 435.153 199.844 435.739C195.254 436.228 190.713 436.765 186.221 437.351C185.146 434.909 184.121 432.565 183.145 430.319C182.266 428.073 181.289 425.729 180.215 423.288C181.582 423.483 183.389 423.776 185.635 424.167C187.979 424.46 190.469 424.753 193.105 425.046C195.84 425.339 198.525 425.632 201.162 425.925C203.896 426.12 206.387 426.218 208.633 426.218C208.34 423.776 208.096 421.433 207.9 419.187C207.803 416.843 207.412 414.792 206.729 413.034C206.143 411.179 205.068 409.665 203.506 408.493C202.041 407.321 199.795 406.638 196.768 406.442C196.963 405.368 197.158 404.392 197.354 403.513C197.549 402.536 197.744 401.511 197.939 400.437C199.404 400.437 201.26 400.485 203.506 400.583C205.752 400.681 208.096 400.827 210.537 401.022C212.979 401.12 215.371 401.267 217.715 401.462C220.059 401.657 222.109 401.853 223.867 402.048C223.574 403.122 223.379 404.392 223.281 405.856C223.184 407.321 223.135 408.786 223.135 410.251C223.135 413.278 223.232 415.964 223.428 418.308C223.623 420.651 223.818 423.093 224.014 425.632C227.139 425.339 230.41 425.095 233.828 424.899C237.344 424.606 240.957 424.362 244.668 424.167C244.668 422.507 244.717 420.749 244.814 418.894C244.912 417.038 244.961 415.28 244.961 413.62C244.961 412.253 244.863 411.081 244.668 410.104C244.473 409.03 244.033 408.103 243.35 407.321C242.764 406.442 241.787 405.71 240.42 405.124C239.15 404.538 237.393 404.001 235.146 403.513C235.635 402.536 236.025 401.657 236.318 400.876C236.709 399.997 237.148 399.069 237.637 398.093C239.004 398.19 240.811 398.386 243.057 398.679C245.4 398.874 247.793 399.118 250.234 399.411C252.773 399.704 255.215 400.046 257.559 400.437C259.902 400.729 261.807 401.022 263.271 401.315C262.588 405.222 261.904 409.079 261.221 412.888C260.635 416.599 260.195 420.114 259.902 423.435ZM279.092 384.323C278.408 386.569 277.822 388.767 277.334 390.915C276.846 392.966 276.309 395.114 275.723 397.36C272.793 397.263 269.424 397.214 265.615 397.214C261.807 397.116 257.852 397.116 253.75 397.214C249.648 397.214 245.498 397.263 241.299 397.36C237.197 397.458 233.291 397.556 229.58 397.653C225.967 397.751 222.646 397.897 219.619 398.093C216.689 398.19 214.346 398.288 212.588 398.386C211.416 398.483 209.805 398.63 207.754 398.825C205.703 398.923 203.555 399.069 201.309 399.265C199.16 399.46 197.012 399.655 194.863 399.851C192.715 400.046 191.006 400.241 189.736 400.437C188.662 397.995 187.588 395.651 186.514 393.405C185.439 391.062 184.365 388.669 183.291 386.228C184.756 386.521 186.66 386.862 189.004 387.253C191.348 387.546 193.74 387.839 196.182 388.132C198.721 388.425 201.162 388.669 203.506 388.864C205.947 389.06 207.9 389.157 209.365 389.157C212.783 389.157 217.227 389.06 222.695 388.864C228.262 388.571 234.268 388.229 240.713 387.839C247.158 387.448 253.701 386.96 260.342 386.374C267.08 385.788 273.33 385.104 279.092 384.323ZM243.203 453.171C243.105 455.124 242.959 457.224 242.764 459.47C242.666 461.618 242.52 463.767 242.324 465.915C248.477 465.72 254.482 465.524 260.342 465.329C266.201 465.134 271.426 464.743 276.016 464.157C276.016 464.157 275.918 464.646 275.723 465.622C275.625 466.501 275.43 467.575 275.137 468.845C274.941 470.114 274.697 471.384 274.404 472.653C274.111 473.923 273.916 474.948 273.818 475.729C273.525 477.194 273.184 478.708 272.793 480.271C272.5 481.735 272.256 483.2 272.061 484.665C272.646 484.567 273.232 484.519 273.818 484.519C274.502 484.519 275.088 484.47 275.576 484.372C275.381 486.228 275.137 488.034 274.844 489.792C274.648 491.452 274.453 493.21 274.258 495.065C270.352 494.87 265.469 494.724 259.609 494.626C253.75 494.528 247.842 494.528 241.885 494.626C235.928 494.724 230.312 494.87 225.039 495.065C219.863 495.163 215.908 495.31 213.174 495.505C213.076 496.384 212.979 497.116 212.881 497.702C212.881 498.19 212.881 498.825 212.881 499.606V505.759C212.881 507.517 213.223 508.396 213.906 508.396C214.59 508.493 216.25 508.542 218.887 508.542C222.891 508.542 227.773 508.396 233.535 508.103C239.297 507.907 245.156 507.614 251.113 507.224C257.168 506.833 262.979 506.345 268.545 505.759C274.209 505.173 278.896 504.587 282.607 504.001C282.119 506.247 281.631 508.444 281.143 510.593C280.654 512.839 280.166 515.085 279.678 517.331C276.26 517.233 272.549 517.136 268.545 517.038C264.639 517.038 260.537 517.038 256.24 517.038C251.553 517.038 246.816 517.087 242.031 517.185C237.344 517.282 232.754 517.38 228.262 517.478C223.77 517.575 219.57 517.673 215.664 517.771C211.855 517.868 208.486 517.917 205.557 517.917C201.943 517.917 199.502 517.038 198.232 515.28C196.963 513.62 196.328 511.521 196.328 508.981V501.511C196.328 499.851 196.182 498.483 195.889 497.409C195.693 496.335 195.205 495.456 194.424 494.772C193.643 493.991 192.52 493.308 191.055 492.722C189.688 492.136 187.783 491.452 185.342 490.671C185.83 489.792 186.318 488.913 186.807 488.034C187.295 487.058 187.832 486.13 188.418 485.251C193.594 485.739 199.209 486.081 205.264 486.276C211.318 486.472 217.568 486.569 224.014 486.569C229.678 486.569 235.195 486.521 240.566 486.423C246.035 486.325 251.26 486.179 256.24 485.983C256.338 483.835 256.387 481.735 256.387 479.685C256.484 477.634 256.582 475.583 256.68 473.532C253.75 473.435 250.479 473.435 246.865 473.532C243.35 473.532 239.785 473.63 236.172 473.825C232.559 473.923 229.092 474.069 225.771 474.265C222.451 474.362 219.473 474.509 216.836 474.704C215.859 474.802 214.492 474.948 212.734 475.144C210.977 475.241 209.023 475.388 206.875 475.583C204.727 475.778 202.578 476.071 200.43 476.462C198.281 476.755 196.328 477.097 194.57 477.487C193.301 475.241 191.982 473.044 190.615 470.896C189.346 468.747 188.076 466.599 186.807 464.45C187.881 464.646 189.443 464.89 191.494 465.183C193.545 465.378 195.742 465.573 198.086 465.769C200.43 465.964 202.725 466.11 204.971 466.208C207.217 466.306 209.121 466.354 210.684 466.354H226.357C226.26 465.476 226.211 464.45 226.211 463.278C226.211 462.106 226.211 460.886 226.211 459.616C226.211 458.347 226.211 457.224 226.211 456.247C226.309 455.173 226.357 454.343 226.357 453.757V453.61C217.373 453.708 210 453.854 204.238 454.05C198.574 454.147 193.691 454.343 189.59 454.636C185.488 454.929 181.729 455.271 178.311 455.661C174.893 456.052 171.035 456.54 166.738 457.126C165.762 454.685 164.736 452.243 163.662 449.802C162.686 447.36 161.758 444.919 160.879 442.478C164.102 442.771 167.422 443.112 170.84 443.503C174.258 443.796 177.627 444.04 180.947 444.235C184.365 444.431 187.637 444.626 190.762 444.821C193.984 444.919 196.914 444.968 199.551 444.968C204.238 444.968 209.561 444.919 215.518 444.821C221.572 444.626 227.578 444.479 233.535 444.382C239.59 444.187 245.205 443.991 250.381 443.796C255.654 443.601 259.756 443.454 262.686 443.356C265.908 443.259 269.229 443.112 272.646 442.917C276.162 442.624 279.629 442.331 283.047 442.038C286.562 441.745 289.932 441.452 293.154 441.159C296.377 440.866 299.355 440.524 302.09 440.134C301.699 442.38 301.309 444.675 300.918 447.019C300.625 449.265 300.283 451.511 299.893 453.757C297.939 453.659 295.596 453.562 292.861 453.464C290.127 453.366 287.197 453.269 284.072 453.171C280.947 453.073 277.725 453.024 274.404 453.024C271.084 452.927 267.861 452.878 264.736 452.878C262.197 452.878 259.121 452.927 255.508 453.024C251.895 453.024 247.793 453.073 243.203 453.171Z" fill="#2B2B2B"/>
</g>
<circle cx="286" cy="373.001" r="170" stroke="#493971" stroke-width="20"/>
<g filter="url(#filter3_d_767_4)">
<path d="M375.158 424.079C372.326 432.673 368.42 440.974 363.439 448.981C358.459 456.989 352.746 464.509 346.301 471.54C339.953 478.571 333.02 484.968 325.5 490.729C317.98 496.394 310.217 501.228 302.209 505.231L297.082 499.958C304.113 495.856 310.705 491.022 316.857 485.456C323.01 479.792 328.527 473.884 333.41 467.731C338.391 461.481 342.639 455.183 346.154 448.835C349.67 442.487 352.258 436.481 353.918 430.817C352.453 430.817 350.646 430.866 348.498 430.964C346.447 430.964 344.299 431.013 342.053 431.11C339.807 431.208 337.609 431.306 335.461 431.403C333.41 431.403 331.701 431.403 330.334 431.403C329.357 431.403 327.941 431.501 326.086 431.696C324.23 431.892 322.229 432.136 320.08 432.429C317.932 432.624 315.783 432.868 313.635 433.161C311.584 433.356 309.777 433.601 308.215 433.894L299.572 420.563C300.842 420.759 302.551 421.003 304.699 421.296C306.848 421.491 309.094 421.687 311.438 421.882C313.879 422.077 316.223 422.272 318.469 422.468C320.812 422.565 322.814 422.614 324.475 422.614C327.99 422.614 331.799 422.565 335.9 422.468C340.002 422.272 344.104 422.028 348.205 421.735C352.307 421.345 356.213 420.905 359.924 420.417C363.732 419.929 367.102 419.392 370.031 418.806L375.158 424.079ZM376.916 394.05C379.26 394.343 381.945 394.733 384.973 395.222C388.098 395.71 391.174 396.247 394.201 396.833C397.326 397.419 400.305 397.956 403.137 398.444C405.969 398.933 408.361 399.323 410.314 399.616C410.119 400.495 409.924 401.667 409.729 403.132C409.533 404.597 409.338 406.062 409.143 407.526C409.045 408.991 408.947 410.31 408.85 411.481C408.752 412.556 408.703 413.142 408.703 413.239V493.659C408.703 496.687 408.605 500.202 408.41 504.206C408.312 508.112 408.117 512.067 407.824 516.071C407.629 520.075 407.336 523.884 406.945 527.497C406.652 531.11 406.311 533.991 405.92 536.14L393.469 537.897C393.273 536.335 393.078 534.187 392.883 531.452C392.785 528.815 392.688 525.935 392.59 522.81C392.492 519.685 392.395 516.511 392.297 513.288C392.199 510.065 392.15 507.038 392.15 504.206V412.653C392.15 409.821 390.734 407.526 387.902 405.769C385.07 403.913 380.383 402.155 373.84 400.495L376.916 394.05Z" fill="#2B2B2B"/>
</g>
<g filter="url(#filter4_d_767_4)">
<path d="M269.424 271.097C270.596 270.901 271.621 270.804 272.5 270.804C273.477 270.706 274.355 270.608 275.137 270.511L272.793 282.522C269.473 282.327 265.176 282.181 259.902 282.083C254.727 281.985 249.209 281.937 243.35 281.937C237.49 281.839 231.631 281.839 225.771 281.937C220.01 281.937 214.883 281.985 210.391 282.083C210.195 282.864 210.049 283.597 209.951 284.28C209.854 284.964 209.707 285.599 209.512 286.185L197.5 287.796C197.207 286.038 196.816 283.743 196.328 280.911C195.84 277.981 195.498 275.247 195.303 272.708L192.666 248.099C192.568 246.341 192.373 244.974 192.08 243.997C191.885 243.021 191.445 242.19 190.762 241.507C190.176 240.823 189.199 240.237 187.832 239.749C186.562 239.261 184.805 238.724 182.559 238.138L185.342 231.546C191.787 232.425 198.867 233.011 206.582 233.304C214.297 233.597 222.109 233.694 230.02 233.597C237.93 233.499 245.693 233.255 253.311 232.864C260.928 232.474 267.959 231.985 274.404 231.399C274.111 233.841 273.77 236.722 273.379 240.042C272.988 243.362 272.549 246.829 272.061 250.442C271.572 253.958 271.084 257.522 270.596 261.136C270.205 264.749 269.814 268.069 269.424 271.097ZM255.654 242.532C252.725 242.435 249.111 242.386 244.814 242.386C240.615 242.288 236.318 242.288 231.924 242.386C227.529 242.483 223.33 242.63 219.326 242.825C215.322 242.923 212.051 243.069 209.512 243.265L211.123 269.925C211.221 270.706 211.27 271.341 211.27 271.829C211.27 272.317 211.27 272.806 211.27 273.294C214.395 273.196 217.764 273.099 221.377 273.001C225.088 272.903 228.848 272.806 232.656 272.708C236.465 272.513 240.225 272.366 243.936 272.269C247.646 272.171 251.211 272.073 254.629 271.976L255.654 242.532ZM244.668 312.698C244.668 314.358 244.619 316.312 244.521 318.558C244.424 320.706 244.277 322.903 244.082 325.149C243.887 327.396 243.691 329.642 243.496 331.888C243.301 334.036 243.105 335.94 242.91 337.601L229.434 339.798C229.238 337.942 229.043 335.843 228.848 333.499C228.75 331.155 228.604 328.812 228.408 326.468C228.311 324.124 228.213 321.927 228.115 319.876C228.115 317.825 228.115 316.165 228.115 314.896V306.106C224.307 306.204 220.498 306.351 216.689 306.546C212.881 306.644 209.316 306.741 205.996 306.839C202.676 306.937 199.697 307.083 197.061 307.278C194.424 307.376 192.373 307.474 190.908 307.571C189.15 307.669 187.197 307.815 185.049 308.011C182.998 308.206 180.898 308.45 178.75 308.743C176.602 308.938 174.453 309.183 172.305 309.476C170.254 309.671 168.398 309.866 166.738 310.062L160.879 295.56C165.273 296.048 170.254 296.536 175.82 297.024C181.387 297.415 186.367 297.708 190.762 297.903C193.105 298.001 196.182 298.05 199.99 298.05C203.799 298.05 207.949 298.05 212.441 298.05C217.031 297.952 221.768 297.854 226.65 297.757C231.631 297.562 236.367 297.415 240.859 297.317C245.449 297.22 249.648 297.122 253.457 297.024C257.266 296.829 260.342 296.683 262.686 296.585C265.908 296.487 269.277 296.292 272.793 295.999C276.309 295.706 279.775 295.413 283.193 295.12C286.709 294.729 290.078 294.339 293.301 293.948C296.523 293.558 299.502 293.167 302.236 292.776L299.893 306.546C297.939 306.448 295.596 306.351 292.861 306.253C290.225 306.155 287.344 306.058 284.219 305.96C281.094 305.862 277.871 305.765 274.551 305.667C271.23 305.569 267.959 305.521 264.736 305.521C262.393 305.521 259.512 305.521 256.094 305.521C252.773 305.423 248.965 305.472 244.668 305.667V312.698ZM282.314 360.892C276.357 360.599 269.863 360.354 262.832 360.159C255.801 360.062 248.818 360.013 241.885 360.013C235.049 360.11 228.506 360.208 222.256 360.306C216.006 360.501 210.732 360.745 206.436 361.038C202.432 361.331 199.6 360.55 197.939 358.694C196.377 356.937 195.596 354.935 195.596 352.688V335.843C195.596 333.792 195.498 332.181 195.303 331.009C195.107 329.739 194.57 328.714 193.691 327.933C192.91 327.054 191.641 326.321 189.883 325.735C188.125 325.149 185.732 324.466 182.705 323.685L185.488 317.093C186.953 317.288 188.906 317.532 191.348 317.825C193.887 318.118 196.475 318.46 199.111 318.851C201.846 319.241 204.482 319.632 207.021 320.022C209.561 320.413 211.562 320.706 213.027 320.901C212.832 322.073 212.637 323.929 212.441 326.468C212.246 328.909 212.148 331.009 212.148 332.767V348.001C212.148 349.661 212.295 350.638 212.588 350.931C212.881 351.224 213.76 351.419 215.225 351.517C217.666 351.517 220.645 351.468 224.16 351.37C227.773 351.37 231.68 351.272 235.879 351.077C240.176 350.979 244.57 350.833 249.062 350.638C253.652 350.442 258.096 350.149 262.393 349.759C266.689 349.466 270.742 349.124 274.551 348.733C278.457 348.44 281.777 348.05 284.512 347.562L282.314 360.892Z" fill="#2B2B2B"/>
</g>
<defs>
<filter id="filter0_d_767_4" x="102" y="190.001" width="368" height="368" filterUnits="userSpaceOnUse" color-interpolation-filters="sRGB">
<feFlood flood-opacity="0" result="BackgroundImageFix"/>
<feColorMatrix in="SourceAlpha" type="matrix" values="0 0 0 0 0 0 0 0 0 0 0 0 0 0 0 0 0 0 127 0" result="hardAlpha"/>
<feMorphology radius="1" operator="dilate" in="SourceAlpha" result="effect1_dropShadow_767_4"/>
<feOffset dy="1"/>
<feGaussianBlur stdDeviation="1.5"/>
<feComposite in2="hardAlpha" operator="out"/>
<feColorMatrix type="matrix" values="0 0 0 0 0 0 0 0 0 0 0 0 0 0 0 0 0 0 0.16 0"/>
<feBlend mode="normal" in2="BackgroundImageFix" result="effect1_dropShadow_767_4"/>
<feBlend mode="normal" in="SourceGraphic" in2="effect1_dropShadow_767_4" result="shape"/>
</filter>
<filter id="filter1_d_767_4" x="288.299" y="237.05" width="129.729" height="151.848" filterUnits="userSpaceOnUse" color-interpolation-filters="sRGB">
<feFlood flood-opacity="0" result="BackgroundImageFix"/>
<feColorMatrix in="SourceAlpha" type="matrix" values="0 0 0 0 0 0 0 0 0 0 0 0 0 0 0 0 0 0 127 0" result="hardAlpha"/>
<feMorphology radius="1" operator="dilate" in="SourceAlpha" result="effect1_dropShadow_767_4"/>
<feOffset dy="1"/>
<feGaussianBlur stdDeviation="1.5"/>
<feComposite in2="hardAlpha" operator="out"/>
<feColorMatrix type="matrix" values="0 0 0 0 0 0 0 0 0 0 0 0 0 0 0 0 0 0 0.16 0"/>
<feBlend mode="normal" in2="BackgroundImageFix" result="effect1_dropShadow_767_4"/>
<feBlend mode="normal" in="SourceGraphic" in2="effect1_dropShadow_767_4" result="shape"/>
</filter>
<filter id="filter2_d_767_4" x="156.879" y="381.323" width="149.211" height="141.594" filterUnits="userSpaceOnUse" color-interpolation-filters="sRGB">
<feFlood flood-opacity="0" result="BackgroundImageFix"/>
<feColorMatrix in="SourceAlpha" type="matrix" values="0 0 0 0 0 0 0 0 0 0 0 0 0 0 0 0 0 0 127 0" result="hardAlpha"/>
<feMorphology radius="1" operator="dilate" in="SourceAlpha" result="effect1_dropShadow_767_4"/>
<feOffset dy="1"/>
<feGaussianBlur stdDeviation="1.5"/>
<feComposite in2="hardAlpha" operator="out"/>
<feColorMatrix type="matrix" values="0 0 0 0 0 0 0 0 0 0 0 0 0 0 0 0 0 0 0.16 0"/>
<feBlend mode="normal" in2="BackgroundImageFix" result="effect1_dropShadow_767_4"/>
<feBlend mode="normal" in="SourceGraphic" in2="effect1_dropShadow_767_4" result="shape"/>
</filter>
<filter id="filter3_d_767_4" x="293.082" y="391.05" width="121.232" height="151.848" filterUnits="userSpaceOnUse" color-interpolation-filters="sRGB">
<feFlood flood-opacity="0" result="BackgroundImageFix"/>
<feColorMatrix in="SourceAlpha" type="matrix" values="0 0 0 0 0 0 0 0 0 0 0 0 0 0 0 0 0 0 127 0" result="hardAlpha"/>
<feMorphology radius="1" operator="dilate" in="SourceAlpha" result="effect1_dropShadow_767_4"/>
<feOffset dy="1"/>
<feGaussianBlur stdDeviation="1.5"/>
<feComposite in2="hardAlpha" operator="out"/>
<feColorMatrix type="matrix" values="0 0 0 0 0 0 0 0 0 0 0 0 0 0 0 0 0 0 0.16 0"/>
<feBlend mode="normal" in2="BackgroundImageFix" result="effect1_dropShadow_767_4"/>
<feBlend mode="normal" in="SourceGraphic" in2="effect1_dropShadow_767_4" result="shape"/>
</filter>
<filter id="filter4_d_767_4" x="156.879" y="228.399" width="149.357" height="138.078" filterUnits="userSpaceOnUse" color-interpolation-filters="sRGB">
<feFlood flood-opacity="0" result="BackgroundImageFix"/>
<feColorMatrix in="SourceAlpha" type="matrix" values="0 0 0 0 0 0 0 0 0 0 0 0 0 0 0 0 0 0 127 0" result="hardAlpha"/>
<feMorphology radius="1" operator="dilate" in="SourceAlpha" result="effect1_dropShadow_767_4"/>
<feOffset dy="1"/>
<feGaussianBlur stdDeviation="1.5"/>
<feComposite in2="hardAlpha" operator="out"/>
<feColorMatrix type="matrix" values="0 0 0 0 0 0 0 0 0 0 0 0 0 0 0 0 0 0 0.16 0"/>
<feBlend mode="normal" in2="BackgroundImageFix" result="effect1_dropShadow_767_4"/>
<feBlend mode="normal" in="SourceGraphic" in2="effect1_dropShadow_767_4" result="shape"/>
</filter>
</defs>
</svg>
