<svg width="216" height="212" viewBox="0 0 216 212" fill="none" xmlns="http://www.w3.org/2000/svg">
<path d="M5 142.792C29.4278 142.792 53.8556 142.792 78.2833 142.792C87.2043 142.792 87.1454 142.758 87.5981 133.365C88.5616 113.372 89.041 97.5288 89.041 77.5" stroke="black" stroke-width="10" stroke-linecap="round"/>
<path d="M91.4902 205.745C99.9259 205.745 108.361 205.745 116.797 205.745C123.044 205.745 129.292 205.745 135.539 205.745C140.111 205.745 149.073 207.457 152.541 203.5C156.246 199.273 154.962 198.577 154.989 193.5C155.045 182.921 154.559 190.76 155.011 180.187C155.255 174.475 155.516 168.787 155.516 163.072" stroke="black" stroke-width="10" stroke-linecap="round"/>
<path d="M152.873 159.001C160.041 160.5 164.824 159 169.041 159C174.219 159 173.658 169.108 173.041 172.5C172.588 174.993 190.394 173.5 194.041 173.5" stroke="black" stroke-width="10" stroke-linecap="round"/>
<path d="M155.709 159.001C148.541 160.5 143.758 159 139.541 159C134.363 159 134.924 169.108 135.541 172.5C135.994 174.993 118.188 173.5 114.541 173.5" stroke="black" stroke-width="10" stroke-linecap="round"/>
<path d="M155.541 165.501C155.541 153.722 165.038 148.084 177.041 147.922C188.044 147.774 183.057 147.922 194.041 147.922C196.427 147.922 209.03 148.492 209.85 135.577C210.391 127.049 210.86 118.7 210.86 110.102C210.86 103.185 210.86 109.461 210.86 102.5C210.86 90.8787 212.853 82.6391 197.617 82.6391C188.752 82.6391 196.231 82.6391 187.365 82.6391C184.891 82.6391 180.744 83.8412 180.744 80.619C180.744 77.0839 180.744 73.5488 180.744 70.0137" stroke="black" stroke-width="10" stroke-linecap="round"/>
<path d="M185.651 103.528C185.651 101.566 185.072 99 186.572 99H188.071H189.273H194.957C197.989 99 197.422 100.265 197.422 102.974C197.422 105.271 193.312 105 191.572 105C190.346 105 185.651 105.219 185.651 103.528Z" stroke="black" stroke-width="10" stroke-linecap="round"/>
<path d="M124.543 85.4999C125.104 85.4999 130.242 84.5937 130.739 85.4629C131.101 86.0963 131.085 90.1541 130.336 90.1916C128.541 90.5 126.541 90.5 124.677 90.1916C123.481 90.1916 123.541 86 124.541 85.5" stroke="black" stroke-width="10" stroke-linecap="round"/>
<path d="M155.299 85.4139C155.859 85.4139 160.998 84.5078 161.494 85.3769C161.856 86.0104 161.841 90.0682 161.092 90.1057C159.541 90.5 157.041 90.5 155.433 90.1057C154.236 90.1057 154.297 85.9141 155.297 85.4141" stroke="black" stroke-width="10" stroke-linecap="round"/>
<path d="M104.158 70.7012C103.323 78.0287 104.159 85 104.158 95.5C104.158 109.5 107.156 126.5 110.041 136C113.041 143.5 118.541 147 123.541 149.5C131.351 153.405 140.541 155 157.041 157" stroke="black" stroke-width="10" stroke-linecap="round"/>
<path d="M108.041 45L114.041 14.5L137.041 5.5L156.541 11L165.041 45C177.208 41.5 201.341 39.1 200.541 57.5C199.741 75.9 157.874 78.5 137.041 77.5C117.208 79 77.3413 77.5 76.5413 59.5C75.7413 41.5 97.208 42.3333 108.041 45Z" fill="#FF0000"/>
<path d="M100.85 75.8516C117.35 78.5009 123.939 79 139.35 79C150.948 79 161.35 79 174.35 75.8516" stroke="black" stroke-width="10" stroke-linecap="round"/>
<path d="M114.941 12.668C114.677 25.9003 107.871 38.3817 107.871 52.0592" stroke="black" stroke-width="10" stroke-linecap="round"/>
<path d="M158.541 12C158.975 19.376 160.995 28.2167 163.219 35.332C163.941 37.6447 164.385 39.332 165.219 41.832C166.219 44.832 166.719 48.332 167.719 51.832" stroke="black" stroke-width="10" stroke-linecap="round"/>
<path d="M115.35 15C118.85 20 132.107 20 136.35 20C143.471 20 150.85 20 157.85 13.5" stroke="black" stroke-width="10" stroke-linecap="round"/>
<path d="M117.541 11C124.469 6.95988 129.229 5 137.541 5C145.275 5 149.7 7.05292 157.041 9.5" stroke="black" stroke-width="10" stroke-linecap="round"/>
<path d="M105.852 42.9688C96.0824 43.2014 74.541 45.4541 74.541 58.1192C74.541 70.4658 92.7782 76.2998 102.822 76.2998" stroke="black" stroke-width="10" stroke-linecap="round"/>
<path d="M170.349 42.5C180.119 42.7326 201.66 44.9854 201.66 57.6505C201.66 69.9971 183.423 75.831 173.379 75.831" stroke="black" stroke-width="10" stroke-linecap="round"/>
<path d="M107.541 54C121.116 62.2038 151.922 61.7936 166.541 54" stroke="black" stroke-width="6" stroke-linecap="round"/>
</svg>
