<svg width="91" height="115" viewBox="0 0 91 115" fill="none" xmlns="http://www.w3.org/2000/svg">
<path d="M29.3627 32.5994V43.2282H61.6255V32.5994C61.6255 22.812 54.4067 14.8847 45.4941 14.8847C36.5815 14.8847 29.3627 22.812 29.3627 32.5994ZM16.4576 43.2282V32.5994C16.4576 14.9954 29.4635 0.712891 45.4941 0.712891C61.5247 0.712891 74.5306 14.9954 74.5306 32.5994V43.2282H77.7569C84.8749 43.2282 90.662 49.5833 90.662 57.3999V99.9152C90.662 107.732 84.8749 114.087 77.7569 114.087H13.2313C6.11331 114.087 0.326172 107.732 0.326172 99.9152V57.3999C0.326172 49.5833 6.11331 43.2282 13.2313 43.2282H16.4576Z" fill="#ECECEC"/>
</svg>
