<svg width="488" height="308" viewBox="0 0 488 308" fill="none" xmlns="http://www.w3.org/2000/svg">
<path d="M115.22 155.92C116.713 157.413 117.46 159.84 117.46 163.2V258.68C117.46 266.053 115.827 271.467 112.56 274.92C109.387 278.467 105.327 280.24 100.38 280.24C98.7 280.24 97.44 279.68 96.6 278.56C95.76 277.44 95.34 276.227 95.34 274.92V204.36C93.66 204.547 92.5867 204.64 92.12 204.64C90.3467 204.733 88.34 205.06 86.1 205.62C85.54 205.713 84.1867 206.087 82.04 206.74C80.64 207.207 79.1467 207.347 77.56 207.16C75.88 206.973 74.34 206.413 72.94 205.48C72.1 204.92 71.6333 204.593 71.54 204.5C69.86 203.007 68.88 201.233 68.6 199.18C68.5067 198.34 68.74 197.687 69.3 197.22C69.86 196.66 70.56 196.427 71.4 196.52C73.8267 196.8 78.1667 196.94 84.42 196.94C89.46 196.94 93.1 196.893 95.34 196.8V171.18C95.34 167.26 94.78 164.32 93.66 162.36C91.98 159.747 90.9067 157.927 90.44 156.9C89.5067 154.66 89.5067 152.98 90.44 151.86C91.4667 150.647 92.96 149.947 94.92 149.76C103.973 149.107 110.74 151.16 115.22 155.92ZM51.94 204.08C60.7133 206.133 67.9 209.773 73.5 215C79.1933 220.227 82.04 225.78 82.04 231.66C82.04 235.02 80.8267 237.913 78.4 240.34C76.0667 242.673 73.22 243.84 69.86 243.84C66.5 243.84 63.6067 242.673 61.18 240.34C58.8467 237.913 57.68 235.02 57.68 231.66C57.68 230.073 57.9133 228.16 58.38 225.92C58.8467 223.587 59.08 221.86 59.08 220.74C59.1733 219.62 58.8467 217.707 58.1 215C56.7933 211.64 54.0867 209.12 49.98 207.44C39.9933 223.867 27.2533 236 11.76 243.84C9.42667 244.96 7.51333 245.473 6.02 245.38C4.62 245.193 3.64 244.68 3.08 243.84C2.24 242.533 2.98667 240.667 5.32 238.24C13.6267 229.467 20.7667 219.62 26.74 208.7C32.7133 197.78 36.26 188.073 37.38 179.58C37.5667 178.273 37.0533 176.407 35.84 173.98C34.6267 171.46 34.2067 169.593 34.58 168.38C35.5133 165.487 38.4067 164.18 43.26 164.46C47.0867 164.74 50.54 165.673 53.62 167.26C56.7 168.753 58.8933 170.433 60.2 172.3C62.0667 175.1 61.88 179.953 59.64 186.86C57.4933 193.02 54.9267 198.76 51.94 204.08ZM213.091 226.76C221.864 227.693 228.678 230.493 233.531 235.16C238.384 239.827 240.811 245.52 240.811 252.24C240.811 259.8 237.824 265.96 231.851 270.72C225.878 275.573 217.524 278 206.791 278C196.058 278 187.704 275.62 181.731 270.86C175.851 266.1 172.911 259.893 172.911 252.24C172.911 245.427 175.338 239.687 180.191 235.02C185.044 230.26 191.951 227.46 200.911 226.62C200.724 226.153 200.351 225.547 199.791 224.8C198.858 223.4 198.438 222.42 198.531 221.86C198.718 220.74 199.138 219.993 199.791 219.62C200.538 219.247 201.191 219.06 201.751 219.06C204.644 218.873 207.258 219.247 209.591 220.18C211.924 221.113 213.278 222.28 213.651 223.68C213.931 224.8 213.744 225.827 213.091 226.76ZM197.831 266.24C199.698 269.133 202.684 270.58 206.791 270.58C210.898 270.58 213.884 269.133 215.751 266.24C217.711 263.347 218.691 258.68 218.691 252.24C218.691 245.8 217.711 241.133 215.751 238.24C213.884 235.253 210.898 233.76 206.791 233.76C202.684 233.76 199.698 235.253 197.831 238.24C195.964 241.133 195.031 245.8 195.031 252.24C195.031 258.68 195.964 263.347 197.831 266.24ZM215.191 204.22C215.844 206.18 214.538 208 211.271 209.68C197.831 216.027 181.591 219.2 162.551 219.2C158.164 219.2 154.851 217.987 152.611 215.56C150.371 213.04 149.251 209.773 149.251 205.76V183.36C149.251 181.213 148.691 179.253 147.571 177.48C147.291 177.107 146.731 176.36 145.891 175.24C145.051 174.12 144.444 173.233 144.071 172.58C142.764 169.967 143.698 168.007 146.871 166.7C148.924 165.58 152.704 165.16 158.211 165.44C163.718 165.72 167.824 166.84 170.531 168.8H171.371H175.711C176.178 168.8 176.878 168.753 177.811 168.66C178.744 168.567 179.444 168.52 179.911 168.52C181.031 168.427 182.338 168.147 183.831 167.68C184.391 167.493 185.278 167.213 186.491 166.84C187.704 166.373 188.638 166.047 189.291 165.86C191.624 165.207 193.584 164.88 195.171 164.88C202.544 164.88 206.091 167.26 205.811 172.02C205.718 173.14 205.064 174.12 203.851 174.96C202.731 175.8 201.191 176.22 199.231 176.22H171.371V200.02C171.371 203.007 172.724 204.5 175.431 204.5C187.284 204.5 199.278 203.893 211.411 202.68C213.464 202.4 214.724 202.913 215.191 204.22ZM260.971 183.92C264.238 183.92 266.991 185.087 269.231 187.42C271.564 189.66 272.731 192.413 272.731 195.68C272.731 198.947 271.564 201.747 269.231 204.08C266.991 206.32 264.238 207.44 260.971 207.44C254.344 207.44 248.091 204.547 242.211 198.76V204.78C242.211 211.22 240.578 216.073 237.311 219.34C234.138 222.607 230.124 224.24 225.271 224.24C223.591 224.24 222.284 223.68 221.351 222.56C220.511 221.347 220.091 220.087 220.091 218.78V171.18C220.091 167.26 219.531 164.32 218.411 162.36C216.731 159.747 215.658 157.927 215.191 156.9C214.258 154.66 214.258 152.98 215.191 151.86C216.218 150.647 217.711 149.947 219.671 149.76C228.818 149.107 235.631 151.16 240.111 155.92C241.511 157.32 242.211 159.747 242.211 163.2V194.84C245.571 194.84 248.558 192.927 251.171 189.1C253.411 185.647 256.678 183.92 260.971 183.92ZM389.921 211.36C392.907 211.36 395.287 212.107 397.061 213.6C398.927 215 399.767 216.68 399.581 218.64C399.487 220.04 398.741 221.207 397.341 222.14C395.941 223.073 394.214 223.493 392.161 223.4C353.707 222.373 323.001 222.747 300.041 224.52C297.707 224.8 295.654 225.22 293.881 225.78C290.334 226.993 286.741 226.713 283.101 224.94C279.834 223.447 277.501 221.067 276.101 217.8C275.447 216.493 275.307 215.42 275.681 214.58C276.147 213.74 277.034 213.413 278.341 213.6C282.354 214.347 288.654 214.907 297.241 215.28C303.587 215.467 313.061 215.56 325.661 215.56V201.7H317.681C305.361 201.7 299.201 197.267 299.201 188.4V176.08C299.201 173.933 298.641 171.973 297.521 170.2C297.241 169.827 296.681 169.08 295.841 167.96C295.001 166.84 294.394 165.953 294.021 165.3C292.714 162.687 293.647 160.727 296.821 159.42C298.874 158.3 302.654 157.88 308.161 158.16C313.667 158.44 317.774 159.56 320.481 161.52H338.961H343.301C343.767 161.52 344.467 161.473 345.401 161.38C346.334 161.287 347.034 161.24 347.501 161.24C348.621 161.147 349.927 160.867 351.421 160.4C351.981 160.213 352.867 159.933 354.081 159.56C355.294 159.093 356.181 158.767 356.741 158.58C358.981 157.927 360.941 157.6 362.621 157.6C370.087 157.6 373.681 159.98 373.401 164.74C373.307 165.86 372.654 166.84 371.441 167.68C370.227 168.52 368.641 168.94 366.681 168.94H321.321V190.64C321.321 193.067 322.581 194.28 325.101 194.28H340.781C341.527 194.28 342.414 194.28 343.441 194.28C344.561 194.187 345.167 194.14 345.261 194.14C345.727 194.047 346.474 194 347.501 194C348.527 194 349.274 193.953 349.741 193.86C351.141 193.767 352.541 193.487 353.941 193.02C354.501 192.833 355.387 192.507 356.601 192.04C357.814 191.48 358.747 191.107 359.401 190.92C361.734 190.267 363.694 189.94 365.281 189.94C368.827 189.94 371.627 190.64 373.681 192.04C375.734 193.347 376.621 195.167 376.341 197.5C376.154 198.62 375.454 199.6 374.241 200.44C373.121 201.28 371.534 201.7 369.481 201.7H347.781V215.28C360.567 215.093 369.621 214.86 374.941 214.58C376.154 214.487 378.487 213.833 381.941 212.62C383.994 211.78 386.654 211.36 389.921 211.36ZM365.561 230.82C369.387 230.82 372.374 231.847 374.521 233.9C376.667 235.86 377.741 238.707 377.741 242.44V260.78C377.741 267.22 376.107 272.073 372.841 275.34C369.667 278.607 365.607 280.24 360.661 280.24C358.981 280.24 357.721 279.68 356.881 278.56C356.041 277.44 355.621 276.227 355.621 274.92V244.12C339.661 243.747 326.781 244.167 316.981 245.38C316.234 245.473 315.207 245.8 313.901 246.36C312.594 246.827 311.614 247.153 310.961 247.34C307.881 247.993 304.847 247.48 301.861 245.8C299.247 244.493 297.334 242.393 296.121 239.5C295.467 238.007 295.234 236.793 295.421 235.86C295.701 234.927 296.354 234.553 297.381 234.74C300.927 235.393 306.574 235.907 314.321 236.28C322.441 236.56 336.114 236.187 355.341 235.16C357.301 232.267 360.707 230.82 365.561 230.82Z" fill="white"/>
<path d="M357.5 148.5C358.463 128.508 360.5 97.5288 360.5 77.5" stroke="white" stroke-width="10" stroke-linecap="round"/>
<path d="M425.5 209.5C425.556 198.921 426.019 190.76 426.47 180.187C426.715 174.475 426.975 168.787 426.975 163.072" stroke="white" stroke-width="10" stroke-linecap="round"/>
<path d="M424.332 159.001C431.5 160.5 436.283 159 440.5 159C445.678 159 445.117 169.108 444.5 172.5C444.047 174.993 461.853 173.5 465.5 173.5" stroke="white" stroke-width="10" stroke-linecap="round"/>
<path d="M427.168 159.001C420 160.5 415.217 159 411 159C405.822 159 406.383 169.108 407 172.5C407.453 174.993 389.647 173.5 386 173.5" stroke="white" stroke-width="10" stroke-linecap="round"/>
<path d="M427 165.501C427 153.722 436.497 148.084 448.5 147.922C459.503 147.774 454.516 147.922 465.5 147.922C467.886 147.922 480.489 148.492 481.309 135.577C481.85 127.049 482.319 118.7 482.319 110.102C482.319 103.185 482.319 109.461 482.319 102.5C482.319 90.8787 484.312 82.6391 469.076 82.6391C460.21 82.6391 467.69 82.6391 458.824 82.6391C456.35 82.6391 452.203 83.8412 452.203 80.619C452.203 77.0839 452.203 73.5488 452.203 70.0137" stroke="white" stroke-width="10" stroke-linecap="round"/>
<path d="M457.11 103.528C457.11 101.566 456.531 99 458.031 99H459.53H460.732H466.416C469.448 99 468.881 100.265 468.881 102.974C468.881 105.271 464.771 105 463.031 105C461.805 105 457.11 105.219 457.11 103.528Z" fill="#C1C1C1" stroke="white" stroke-width="10" stroke-linecap="round"/>
<path d="M396.002 85.4999C396.563 85.4999 401.701 84.5937 402.198 85.4629C402.56 86.0963 402.544 90.1541 401.795 90.1916C400 90.5 398 90.5 396.136 90.1916C394.94 90.1916 395 86 396 85.5" stroke="white" stroke-width="10" stroke-linecap="round"/>
<path d="M426.758 85.4139C427.318 85.4139 432.457 84.5078 432.953 85.3769C433.315 86.0104 433.3 90.0682 432.551 90.1057C431 90.5 428.5 90.5 426.892 90.1057C425.695 90.1057 425.756 85.9141 426.756 85.4141" stroke="white" stroke-width="10" stroke-linecap="round"/>
<path d="M375.617 70.7012C374.782 78.0287 375.618 85 375.617 95.5C375.617 109.5 378.615 126.5 381.5 136C384.5 143.5 390 147 395 149.5C402.81 153.405 412 155 428.5 157" stroke="white" stroke-width="10" stroke-linecap="round"/>
<path d="M379.5 45L385.5 14.5L408.5 5.5L428 11L436.5 45C448.667 41.5 472.8 39.1 472 57.5C471.2 75.9 429.333 78.5 408.5 77.5C388.667 79 348.8 77.5 348 59.5C347.2 41.5 368.667 42.3333 379.5 45Z" fill="#C1C1C1"/>
<path d="M372.309 75.8516C388.809 78.5009 395.398 79 410.809 79C422.407 79 432.809 79 445.809 75.8516" stroke="white" stroke-width="10" stroke-linecap="round"/>
<path d="M386.4 12.668C386.136 25.9003 379.33 38.3817 379.33 52.0592" stroke="white" stroke-width="10" stroke-linecap="round"/>
<path d="M430 12C430.434 19.376 432.454 28.2167 434.678 35.332C435.4 37.6447 435.844 39.332 436.678 41.832C437.678 44.832 438.178 48.332 439.178 51.832" stroke="white" stroke-width="10" stroke-linecap="round"/>
<path d="M386.809 15C390.309 20 403.566 20 407.809 20C414.93 20 422.309 20 429.309 13.5" stroke="white" stroke-width="10" stroke-linecap="round"/>
<path d="M389 11C395.928 6.95988 400.688 5 409 5C416.734 5 421.159 7.05292 428.5 9.5" stroke="white" stroke-width="10" stroke-linecap="round"/>
<path d="M377.311 42.9688C367.541 43.2014 346 45.4541 346 58.1192C346 70.4658 364.237 76.2998 374.281 76.2998" stroke="white" stroke-width="10" stroke-linecap="round"/>
<path d="M441.808 42.5C451.578 42.7326 473.119 44.9854 473.119 57.6505C473.119 69.9971 454.882 75.831 444.838 75.831" stroke="white" stroke-width="10" stroke-linecap="round"/>
<path d="M379 54C392.575 62.2038 423.381 61.7936 438 54" stroke="white" stroke-width="6" stroke-linecap="round"/>
</svg>
